<svg xmlns="http://www.w3.org/2000/svg">
<defs>
<font
       horiz-adv-x="1000"
       id="font1"
       inkscape:label="ycaxen-light"
       horiz-origin-x="0"
       horiz-origin-y="0"
       vert-origin-x="512"
       vert-origin-y="768"
       vert-adv-y="1024"><font-face
         units-per-em="1024"
         ascent="750"
         cap-height="600"
         x-height="400"
         descent="200"
         id="font-face1"
         font-family="ycaxen" /><missing-glyph
         d="M0,0h1000v1000h-1000z"
         id="missing-glyph1" /><glyph
         glyph-name=""
         unicode=" "
         id="glyph1" /><glyph
         glyph-name=""
         unicode="!"
         id="glyph2"
         d="M 612.23635,893.47851 V 158.1504 l -175.1035,106.72851 51.5722,-58.21486 160.375,-127.32811 V 864.50195 Z M 374.91995,797.95508 V 332.93749 h 36.8438 v 465.01759 z" /><glyph
         glyph-name=""
         unicode="&quot;"
         id="glyph3"
         d="m 468.14843,853.85156 -70.16406,-202.40822 24.3125,30.50197 101.31836,171.55664 z m 102.40039,0 -70.16405,-202.40822 24.31249,30.50197 101.31837,171.55664 z" /><glyph
         glyph-name=""
         unicode="?"
         id="glyph4"
         d="m 745.40165,544.13346 c -9.2095,-128.63314 23.036,-248.88904 -87.1959,-246.93965 h -235.8158 c -28.3246,55.21264 197.8414,330.07759 212.9117,354.71022 14.8177,24.21954 10.2375,40.47472 -42.1196,41.8945 h -343.7942 l 25.8105,-35.03811 h 323.7861 c 0,0 -322.4208,-400.32153 -185.254,-400.32153 292.7459,0 324.6964,-5.92087 354.7063,56.37243 13.7604,58.38315 3.8524,149.02804 -23.0351,229.32214 z" /><glyph
         glyph-name=""
         unicode="-"
         id="glyph5"
         d="m 358.399,509.71027 h 307.202 v -46.6056 H 358.399 Z" /><glyph
         glyph-name=""
         unicode="."
         id="glyph6"
         d="M 545.792,141.65942 A 33.792004,33.792004 0 0 0 512,107.86742 33.792004,33.792004 0 0 0 478.208,141.65942 33.792004,33.792004 0 0 0 512,175.45143 33.792004,33.792004 0 0 0 545.792,141.65942 Z" /><glyph
         glyph-name=""
         unicode=","
         id="glyph7"
         d="m 574.81555,254.97704 -101.3184,-196.13292 -24.3127,-30.5023 70.165,202.40975 z" /><glyph
         glyph-name=""
         unicode="A"
         id="glyph8"
         d="m 310.73041,754.42981 2.747,-553.53497 h 139.268 c 344.1993,0 351.4406,350.92988 -2.748,350.92988 h -96.613 v 173.10322 h 317.227 v 29.50187 z m 42.654,-232.10696 h 104.024 c 279.229,0 288.095,-289.87365 2.31,-289.87365 h -106.334 z" /><glyph
         glyph-name=""
         unicode="B"
         id="glyph9"
         d="M 492.21806,922.8903 V 765.17433 c -112.6224,-13.21687 -202.2331,-137.7966 -202.274,-283.53996 -0.043,-154.1886 99.4174,-287.83207 222.0559,-287.83207 122.6385,0 222.0564,135.6544 222.056,287.83207 -4e-4,143.84343 -89.6469,270.11491 -202.2739,283.52194 V 922.8903 Z m 19.7819,-180.59202 c 100.7898,0 172.256,-112.39312 172.256,-258.61602 0,-146.22279 -71.4662,-266.80791 -172.256,-266.80791 -100.7896,0 -172.2559,118.53712 -172.2559,264.76002 0,146.22279 71.4663,260.66391 172.2559,260.66391 z" /><glyph
         glyph-name=""
         unicode="C"
         id="glyph10"
         d="M 312.6799,754.42981 V 200.4306 l 80.6618,-7.2e-4 c 429.5607,0 418.3446,553.99993 0,553.99993 z m 44.6557,-29.3305 h 55.5434 c 332.1943,0 341.067,-494.17657 0,-494.17657 h -55.5434 z" /><glyph
         glyph-name=""
         unicode="D"
         id="glyph11"
         d="m 224.76494,754.42971 c 0,0 0.4049,-73.60741 -1.2076,-360.52624 -1.5373,-273.55104 216.5686,-225.84801 284.4495,-111.89222 56.7213,-121.31651 198.8521,-113.66496 251.7998,-29.65474 v -52.17835 h 40.6441 v 553.52547 h -40.6441 V 275.78574 c -84.564,-105.0137 -229.7353,-94.15526 -233.4337,109.181 -0.9708,53.37654 1.3053,369.28591 1.3053,369.28591 l -39.2357,0.17716 c 0,0 0.4048,-73.60742 -1.2076,-360.52624 -0.2218,-39.47652 0.2544,-60.29964 12.7494,-99.06593 -116.1498,-141.46615 -237.2507,-85.89055 -237.2886,69.15896 -0.039,155.81328 1.3053,390.25604 1.3053,390.25604 z" /><glyph
         glyph-name=""
         unicode="E"
         id="glyph12"
         d="M 660.27902,342.0832 V 200.88989 h 39.4257 v 553.4579 h -39.4265 l 8e-4,-379.3937 c -29.3832,-146.24379 -295.6948,-193.49126 -294.9424,-16.59243 0.6502,152.87523 0,395.89457 0,395.89457 l -40.9881,0.17358 c 0,0 -0.1198,-369.80925 0,-403.78329 0.7924,-227.58885 309.2961,-165.97569 335.932,-8.56352 z" /><glyph
         glyph-name=""
         unicode="G"
         id="glyph13"
         d="M 513.27051,754.37305 C 402.15478,757.06624 290.7041,664.24163 290.7041,478.21094 291.45773,261.5293 405.35641,197.29341 513.66309,196.57031 c 98.12709,-0.6551 153.12268,48.90247 166.10938,62.26171 2.22775,3.86679 21.59918,33.78637 23.55858,37.67774 0,0 -75.17528,-61.898 -190.04101,-62.36913 C 390.07533,233.63525 336.99563,337.11871 335.72559,454.45311 H 733.2959 c 0,68.32249 -15.57381,294.96463 -220.02539,299.91994 z m 0,-32.01563 c 138.08138,-1.71771 173.8496,-140.95911 173.8496,-226.94335 H 336.59668 c 0,79.39742 15.50978,228.9482 176.67383,226.94335 z M 411.91504,166.73241 c 0,-125.99975 201.61875,-128.88349 200.16406,0 h -4.71679 c -13.54406,-76.60811 -175.73447,-73.03311 -191.16211,0 z" /><glyph
         glyph-name=""
         unicode="H"
         id="glyph14"
         d="m 524.4335,754.42981 c 115.4964,0 158.3991,-57.03776 172.9082,-73.21724 l -11.7676,-30.39269 c -15.6338,27.24559 -72.8093,74.5935 -161.1406,74.5935 -88.3314,0 -150.6291,-60.80896 -150.6291,-248.33061 0,-187.52165 52.9606,-249.46869 150.6291,-249.46869 88.4539,0 138.2356,23.18748 172.5061,66.26839 -13.7193,-23.92418 -21.9552,-97.05708 -172.5061,-97.31765 -150.5509,-0.26057 -197.7752,183.05656 -197.7752,280.51795 0,97.46139 29.7528,277.34704 197.7752,277.34704 z" /><glyph
         glyph-name=""
         unicode="I"
         id="glyph15"
         d="M 319.50485,754.42981 V 200.00003 l 40.1903,-3e-5 v 429.43111 c 162.323,170.94013 305.0368,63.92979 305.0368,-47.84646 V 200.00151 l 39.7632,-0.001 v 351.85445 c 0,286.9237 -273.6121,218.08337 -344.8,98.21118 v 104.36367 z" /><glyph
         glyph-name=""
         unicode="J"
         id="glyph16"
         d="M 656.28051,337.21643 V 30.78356 h 38.3626 V 754.3033 h -38.3633 l 7e-4,-385.10239 c -28.5909,-142.30015 -287.7211,-188.27361 -286.989,-16.14497 0.6327,148.75283 0,402.15828 0,402.15828 l -39.8828,0.16883 c 0,0 -0.1166,-376.77629 0,-409.83423 0.771,-221.45171 300.9555,-161.49997 326.8731,-8.33257 z" /><glyph
         glyph-name=""
         unicode="K"
         id="glyph17"
         d="m 513.28655,754.42981 c -112.6335,2.69348 -225.6054,-90.14006 -225.6054,-276.18997 0.7638,-216.70395 116.2172,-280.94572 226.0032,-281.66891 99.4675,-0.65517 155.2156,48.90644 168.3796,62.2671 2.2582,3.86718 21.8945,33.7909 23.8808,37.68266 0,0 -76.2038,-61.90547 -192.6384,-62.37665 -124.8979,-0.50543 -178.7013,102.98909 -179.9887,220.33558 h 403.0012 c 0,68.32951 -15.788,294.99438 -223.0323,299.95019 z m 0,-32.01924 c 139.9674,-1.7179 176.2255,-140.97358 176.2255,-226.9667 h -355.3112 c 0,79.4056 15.7202,228.97175 179.0857,226.9667 z" /><glyph
         glyph-name=""
         unicode="L"
         id="glyph18"
         d="m 515.31398,759.38305 c -114.1825,0 -155.6156,-51.20372 -182.2834,-73.17789 l 14.0625,-49.18889 c 25.0697,47.82977 81.9728,90.3689 168.2189,90.39492 91.6685,0.0278 152.2678,-56.12179 152.9438,-111.76205 0.7121,-58.6033 -23.4828,-109.71963 -161.3321,-122.84212 l -44.0699,-4.1952 v -23.58353 c 0.573,0 44.8267,-4.17539 45.3993,-4.17143 128.4842,-1.53587 159.3289,-64.91098 160.0027,-123.01621 0.6762,-58.30899 -14.4709,-108.83108 -152.9601,-108.83901 -138.4892,-0.008 -204.3,88.35268 -204.3,88.35268 l 25.722,-62.04278 c 32.0539,-24.64586 64.4538,-62.42086 178.2113,-62.42165 113.7574,-8e-4 198.6217,49.0941 198.0727,144.95076 -0.4404,76.88039 -49.227,123.65714 -133.4837,138.92637 86.2212,15.01827 133.4837,61.22991 133.4837,138.88339 0,72.79411 -83.505,143.73264 -197.6877,143.73264 z" /><glyph
         glyph-name=""
         unicode="M"
         id="glyph19"
         d="m 368.28315,785.78854 c 48.4519,80.992 99.4406,95.18147 143.7167,95.66812 31.052,0.3413 102.6061,-6.3506 113.4942,-54.89274 5.6837,-25.33913 -26.2202,-60.2851 -113.4942,-73.5837 -119.7637,-5.3e-4 -216.8512,-129.48132 -216.8515,-278.092 -6e-4,-148.61148 97.0872,-281.0854 216.8516,-281.08592 119.7643,5.2e-4 216.8522,132.47444 216.8517,281.08592 -0.1486,131.34553 -70.4447,249.36598 -174.8459,271.02335 83.4528,5.56691 112.0889,34.24109 107.2247,78.65234 -5.5531,50.7003 -67.3237,92.08686 -149.2306,91.21484 -67.9489,-0.72342 -126.5599,-42.21852 -156.1831,-87.97641 z m 143.7167,-58.34604 c 98.4276,2.3e-4 168.219,-109.75874 168.2189,-252.55459 2e-4,-142.79591 -69.7913,-256.55493 -168.2189,-256.5547 -98.4275,-2.3e-4 -170.2188,113.75879 -170.2187,256.5547 -1e-4,142.79588 71.7912,252.55482 170.2187,252.55459 z" /><glyph
         glyph-name=""
         unicode="N"
         id="glyph20"
         d="m 608.98695,760.44741 c -119.2309,-6.2e-4 -178.136,-117.99789 -181.9383,-263.97394 h -152.5225 v 257.77614 h -41.6605 V 200 h 41.6605 v 257.77614 h 152.5225 c 3.8019,-145.97585 62.7073,-263.97332 181.9383,-263.97384 123.3506,5.2e-4 182.148,130.26197 182.1474,283.32353 -3e-4,153.06085 -58.7974,283.32096 -182.1474,283.32158 z m 0,-19.08417 c 101.3748,2e-4 134.1184,-117.16549 134.1181,-264.23741 3e-4,-147.07191 -32.7431,-264.23771 -134.1181,-264.2374 -101.375,-3.1e-4 -132.0565,117.16549 -132.0564,264.2374 -10e-5,147.07192 30.6815,264.23761 132.0564,264.23741 z" /><glyph
         glyph-name=""
         unicode="O"
         id="glyph21"
         d="m 498.93662,760.44673 c -152.7347,0.2299 -181.4856,-57.58854 -198.1094,-74.19037 l 13.4827,-35.38899 c -1.0007,1.68823 43.3078,79.80543 184.6267,79.80543 141.3188,0 171.2703,-154.55584 172.3057,-235.92456 h -268.1959 v -34.16308 h 268.3458 c -0.1029,-82.93349 -36.132,-234.89672 -172.4556,-234.89746 -136.3237,-8.4e-4 -146.5239,39.52461 -197.6486,84.23746 10.6568,-72.62445 78.2464,-117.17181 197.6486,-116.09721 155.0416,1.70777 224.1629,167.59544 224.2361,282.96995 0.073,115.55954 -71.5016,283.41913 -224.2361,283.64883 z" /><glyph
         glyph-name=""
         unicode="P"
         id="glyph22"
         d="m 673.0752,760.38766 c 0,0 -137.9617,-229.02563 -156.0732,-261.66742 -8.136,16.11804 -169.5231,261.70933 -169.5231,261.70933 l -48.9176,0.0112 c 0.8864,5.1e-4 181.6124,-277.89319 189.9848,-295.46572 C 472.3619,438.63778 316.1901,194 316.1901,194 h 36.1482 c 0,0 136.1002,210.15614 158.4896,251.39887 C 523.5649,422.81689 672.3046,194 672.3046,194 h 53.1341 c 0,0 -151.2297,229.99793 -185.5672,284.01439 l 173.9438,282.36172 z" /><glyph
         glyph-name=""
         unicode="S"
         id="glyph23"
         d="M 312.52544,754.42969 V 200.00001 h 80.7246 c 429.89324,-0.004 418.66837,554.42968 0,554.42968 z m 44.68945,-29.35352 h 55.58789 c 332.45142,0 341.33106,-494.56054 0,-494.56054 h -55.58789 z m 26.09765,-558.17968 c 0,-125.89276 201.44564,-128.77406 199.99219,0 h -4.71094 c -13.53254,-76.54304 -175.58741,-72.97107 -191.00195,0 z" /><glyph
         glyph-name=""
         unicode="T"
         id="glyph24"
         d="M 668.1754,754.43171 355.8247,245.55761 V 754.42976 H 312.6589 V 200 h 43.1658 L 668.1754,704.35942 V 200 h 43.1657 v 554.41968 z" /><glyph
         glyph-name=""
         unicode="U"
         id="glyph25"
         d="m 498.83815,760.5351 c -122.2626,0 -167.6788,-57.93481 -183.0378,-74.36869 l 12.457,-30.8707 c 16.5497,27.67411 77.0748,75.76661 170.5808,75.76661 93.5061,0 159.4536,-60.46555 159.4536,-252.23607 0,-191.77052 -99.5663,-253.39161 -159.4536,-253.39203 -96.1837,-6.3e-4 -135.3768,23.04999 -182.612,67.31063 31.9972,-66.74172 96.8066,-98.84824 182.612,-98.84824 162.5276,0 209.3615,143.13331 209.3615,284.92964 0,141.79632 -31.4958,281.70885 -209.3615,281.70885 z" /><glyph
         glyph-name=""
         unicode="W"
         id="glyph26"
         d="m 512.00056,760.5351 c 120.468,-2e-4 219.7439,-131.20842 219.7443,-281.80227 4e-4,-150.59385 -98.3821,-284.83622 -219.7443,-284.83622 -121.3622,0 -219.7882,132.25237 -219.7454,284.83622 0.043,152.58385 99.2773,281.80247 219.7454,281.80227 z m 0,-23.8518 c -99.7408,0 -170.4636,-113.24981 -170.4636,-257.95078 0,-144.70106 70.7228,-262.0044 170.4636,-262.0044 99.7407,0 170.4626,119.33002 170.4626,264.03108 0,144.70108 -70.7219,255.9241 -170.4626,255.9241 z" /><glyph
         glyph-name=""
         unicode="X"
         id="glyph27"
         d="M 319.50022,754.42981 V 200 h 40.1908 v 431.71171 c 162.3254,167.82191 305.04122,62.76365 305.04122,-46.97365 V 200.00144 C 665.40312,142.10525 585.45342,41.80637 481.09182,31.81422 l 58.2719,5.01488 C 623.26512,51.61071 705.11922,123.51452 704.49625,200 v 355.55075 c 0,281.68964 -273.61623,214.10511 -344.80523,96.41961 v 102.45945 z" /><glyph
         glyph-name=""
         unicode="Z"
         id="glyph28"
         d="M 668.17577,754.42969 355.82616,245.55665 V 754.42774 H 312.66015 V 200 h 43.16601 L 668.17577,704.35742 V 200 h 43.16408 V 754.41797 Z M 411.95702,166.64259 c 0,-125.94699 201.5322,-128.82953 200.07813,0 h -4.71289 c -13.53838,-76.57601 -175.66281,-73.00254 -191.08399,0 z" /><glyph
         glyph-name=""
         unicode="0"
         id="glyph29"
         d="M 657.4784,304.87508 422.1633,684.76385 366.5216,705.03035 598.521,288.01601 Z" /><glyph
         glyph-name=""
         unicode="1"
         id="glyph31"
         d="M 493.57805,893.47812 V 145.86206 l 36.8439,-66.52523 v 785.16519 z" /><glyph
         glyph-name=""
         unicode="2"
         id="glyph32"
         d="M 581.51562,893.47851 V 145.86132 l 36.84376,-66.52538 v 785.16601 z m -175.875,-99.61913 V 328.84181 l 36.84376,-24.57619 V 769.2832 Z" /><glyph
         glyph-name=""
         unicode="3"
         id="glyph33"
         d="m 370.8039,754.94649 -36.844,24.57601 v -465.018 l 36.844,-24.57601 z m 165.762,-51.1 -36.844,18.562 v -351.224 l 36.844,-18.562 z m 116.6299,-557.984 36.8443,-66.52604 V 864.5025 l -36.8443,28.976 z" /><glyph
         glyph-name=""
         unicode="4"
         id="glyph34"
         d="M 651.8028,838.3235 C 640.3764,739.75895 618.9453,609.71747 570.9249,493.37085 l -76.172,129.0526 -37.5978,13.69404 94.0157,-168.99002 C 501.8444,359.93329 431.5829,256.76211 332.2049,175.45145 446.9392,230.0975 521.7831,334.55858 572.919,433.89162 l 41.0039,-79.56015 39.8379,11.392 -62.8097,99.11599 c 61.8255,137.42591 95.1064,278.40697 100.844,311.67604 z" /><glyph
         glyph-name=""
         unicode="5"
         id="glyph35"
         d="m 765.69615,557.89075 -469.5464,-97.42079 -37.8459,-45.54576 459.0759,95.23325 z" /><glyph
         glyph-name=""
         unicode="6"
         id="glyph36"
         d="M 485.38585,893.4785 V 538.64445 l -189.236,-39.26201 -37.8458,-45.54602 227.0818,47.10601 V 145.86249 l 36.8444,-66.52604 v 429.25 l 195.1497,40.48198 48.316,47.73402 -243.4657,-50.51402 V 864.5025 Z" /><glyph
         glyph-name=""
         unicode="7"
         id="glyph37"
         d="M 573.32395,887.36482 V 550.77679 l -139.0321,-28.846 v 241.23802 l -36.8439,24.576 V 514.28676 l -101.298,-21.01798 -37.8459,-45.54602 139.1439,28.86403 V 322.72681 l 36.8439,-24.576 v 186.07997 l 139.0321,28.83999 V 139.74879 l 36.8442,-66.52608 v 447.49206 l 107.2118,22.24 48.316,47.73403 -155.5278,-32.26803 v 299.96805 z" /><glyph
         glyph-name=""
         unicode="8"
         id="glyph38"
         d="M 640.90875,903.59421 V 569.80213 L 516.08585,545.83431 V 713.9622 l -36.8443,18.56199 V 537.87613 l -120.7266,-23.97 v 251.15606 l -36.8442,24.57601 V 504.50184 l -93.4005,-22.04169 -39.2442,-44.34599 132.6447,31.86997 V 324.6202 l 36.8442,-24.576 v 177.53403 l 120.7266,24.33206 V 381.30021 l 36.8443,-18.56201 v 146.7682 l 124.8229,24.3299 V 155.97821 l 36.8443,-66.52605 v 449.44401 l 107.4423,18.97999 49.7786,46.20799 -157.2209,-29.22214 v 299.7562 z" /><glyph
         glyph-name=""
         unicode="9"
         id="glyph39"
         d="m 661.6189,799.79311 -268.923,-62.51924 -55.7662,-43.72399 c 97.23,22.13294 268.8777,58.93722 315.7548,71.00682 -12.3232,-85.71375 -39.9238,-170.32439 -82.5556,-273.61485 l -76.1725,129.05199 -37.5982,13.69402 94.0166,-168.99001 C 501.0478,357.50379 430.7856,254.33241 331.4072,173.02184 c 114.7351,54.64599 189.5793,159.10705 240.7156,258.44 l 41.0039,-79.55998 39.8384,11.392 -62.8101,99.11599 c 61.8255,137.42575 96.7002,268.34268 102.4378,301.61172 z" /></font>
</defs>
</svg>
