<?xml version="1.0" encoding="UTF-8" standalone="no"?>
<!-- Created with Inkscape (http://www.inkscape.org/) -->

<svg
   width="500"
   height="1000"
   viewBox="0 0 132.29166 264.58333"
   version="1.1"
   id="svg5"
   inkscape:version="1.3 (0e150ed6c4, 2023-07-21)"
   sodipodi:docname="l.svg"
   xmlns:inkscape="http://www.inkscape.org/namespaces/inkscape"
   xmlns:sodipodi="http://sodipodi.sourceforge.net/DTD/sodipodi-0.dtd"
   xmlns="http://www.w3.org/2000/svg"
   xmlns:svg="http://www.w3.org/2000/svg">
  <sodipodi:namedview
     id="namedview7"
     pagecolor="#ffffff"
     bordercolor="#000000"
     borderopacity="0.25"
     inkscape:showpageshadow="2"
     inkscape:pageopacity="0.0"
     inkscape:pagecheckerboard="0"
     inkscape:deskcolor="#d1d1d1"
     inkscape:document-units="mm"
     showgrid="false"
     inkscape:zoom="1.4142136"
     inkscape:cx="153.08861"
     inkscape:cy="731.8555"
     inkscape:window-width="1920"
     inkscape:window-height="995"
     inkscape:window-x="-9"
     inkscape:window-y="-9"
     inkscape:window-maximized="1"
     inkscape:current-layer="layer1"
     showguides="true">
    <sodipodi:guide
       position="0,238.12499"
       orientation="0,1"
       id="guide740"
       inkscape:locked="false"
       inkscape:label=""
       inkscape:color="rgb(0,134,229)" />
    <sodipodi:guide
       position="0,52.916657"
       orientation="0,1"
       id="guide956"
       inkscape:locked="false"
       inkscape:label=""
       inkscape:color="rgb(0,134,229)" />
    <sodipodi:guide
       position="13.229172,264.58333"
       orientation="1,0"
       id="guide958"
       inkscape:locked="false" />
    <sodipodi:guide
       position="251.35417,264.58333"
       orientation="1,0"
       id="guide960"
       inkscape:locked="false" />
    <sodipodi:guide
       position="119.0625,264.58333"
       orientation="-1,0"
       id="guide962"
       inkscape:locked="false"
       inkscape:label=""
       inkscape:color="rgb(0,134,229)" />
    <sodipodi:guide
       position="66.069915,195.58149"
       orientation="0,1"
       id="guide964"
       inkscape:locked="false"
       inkscape:label=""
       inkscape:color="rgb(0,134,229)" />
  </sodipodi:namedview>
  <defs
     id="defs2" />
  <g
     inkscape:label="Layer 1"
     inkscape:groupmode="layer"
     id="layer1">
    <path
       id="rect2"
       style="fill:#000000;stroke:none;stroke-width:0.371857"
       d="m 65.65891,69.097441 c -28.805255,0 -39.25771,12.91735 -45.9853,18.460851 l 3.547583,11.350731 C 29.545627,86.842834 43.900776,76.111331 65.6584,76.104765 c 23.125538,-0.007 38.41313,15.216382 38.5837,29.252955 0.17965,14.78407 -5.92408,28.20854 -40.699857,31.519 l -11.11767,1.05834 v 4.89117 c 0.14455,0 11.30861,1.05334 11.45305,1.05234 32.413156,0.38746 40.194497,16.9045 40.364477,31.56292 0.17058,14.70982 -3.65065,28.51355 -38.58784,28.51555 -34.93716,0.002 -51.539483,-23.34739 -51.539483,-23.34739 l 6.489003,15.65176 c 8.08633,6.2175 16.25996,15.74714 44.95798,15.74734 28.698026,2e-4 50.10704,-12.38515 49.96853,-36.56726 -0.11109,-19.3949 -12.41865,-31.19544 -33.67442,-35.04747 21.75136,-3.78871 33.67442,-15.44669 33.67442,-35.03662 0,-18.364038 -21.066125,-36.259959 -49.87138,-36.259959 z"
       sodipodi:nodetypes="zccssscccscccsscsz" />
  </g>
</svg>
