<?xml version="1.0" encoding="UTF-8" standalone="no"?>
<!-- Created with Inkscape (http://www.inkscape.org/) -->

<svg
   width="500"
   height="1000"
   viewBox="0 0 132.29166 264.58333"
   version="1.1"
   id="svg5"
   inkscape:version="1.3 (0e150ed6c4, 2023-07-21)"
   sodipodi:docname="m.svg"
   xmlns:inkscape="http://www.inkscape.org/namespaces/inkscape"
   xmlns:sodipodi="http://sodipodi.sourceforge.net/DTD/sodipodi-0.dtd"
   xmlns="http://www.w3.org/2000/svg"
   xmlns:svg="http://www.w3.org/2000/svg">
  <sodipodi:namedview
     id="namedview7"
     pagecolor="#ffffff"
     bordercolor="#000000"
     borderopacity="0.25"
     inkscape:showpageshadow="2"
     inkscape:pageopacity="0.0"
     inkscape:pagecheckerboard="0"
     inkscape:deskcolor="#d1d1d1"
     inkscape:document-units="mm"
     showgrid="false"
     inkscape:zoom="1"
     inkscape:cx="-49.5"
     inkscape:cy="651"
     inkscape:window-width="1920"
     inkscape:window-height="995"
     inkscape:window-x="-9"
     inkscape:window-y="-9"
     inkscape:window-maximized="1"
     inkscape:current-layer="layer1"
     showguides="true">
    <sodipodi:guide
       position="0,238.12499"
       orientation="0,1"
       id="guide740"
       inkscape:locked="false"
       inkscape:label=""
       inkscape:color="rgb(0,134,229)" />
    <sodipodi:guide
       position="0,52.916657"
       orientation="0,1"
       id="guide956"
       inkscape:locked="false"
       inkscape:label=""
       inkscape:color="rgb(0,134,229)" />
    <sodipodi:guide
       position="13.229172,264.58333"
       orientation="1,0"
       id="guide958"
       inkscape:locked="false" />
    <sodipodi:guide
       position="251.35417,264.58333"
       orientation="1,0"
       id="guide960"
       inkscape:locked="false" />
    <sodipodi:guide
       position="119.0625,264.58333"
       orientation="-1,0"
       id="guide962"
       inkscape:locked="false"
       inkscape:label=""
       inkscape:color="rgb(0,134,229)" />
    <sodipodi:guide
       position="66.069915,195.58149"
       orientation="0,1"
       id="guide964"
       inkscape:locked="false"
       inkscape:label=""
       inkscape:color="rgb(0,134,229)" />
  </sodipodi:namedview>
  <defs
     id="defs2" />
  <g
     inkscape:label="Layer 1"
     inkscape:groupmode="layer"
     id="layer1">
    <path
       id="path1"
       style="fill:#000000;stroke-width:0.4"
       d="m 28.120759,58.211967 c 12.81958,-21.429133 26.31034,-26.770932 38.025054,-26.899692 8.215848,-0.0903 27.677014,3.79693 30.557847,16.640372 1.503803,6.704312 -7.466595,15.421265 -30.557847,18.939853 -31.687474,1.4e-4 -57.3752137,34.2586 -57.3752937,73.57851 -1.5e-4,39.32012 25.6876597,74.37051 57.3753037,74.37065 31.68765,-1.4e-4 57.375477,-35.05053 57.375327,-74.37065 C 123.48185,105.71917 103.22905,73.96376 75.606223,68.23358 97.68646,66.760669 106.9167,59.703127 105.62971,47.952649 104.16047,34.538196 87.816997,23.588 66.145813,23.818722 48.167669,24.010126 32.660179,34.98904 24.822359,47.095814 Z m 38.025054,15.437389 c 26.04229,-6e-5 44.507927,29.040334 44.507897,66.821734 4e-5,37.78142 -18.465607,67.88016 -44.507897,67.8801 -26.042284,6e-5 -45.037074,-30.09868 -45.037034,-67.8801 -3e-5,-37.78141 18.99475,-66.821794 45.037034,-66.821734 z"
       sodipodi:nodetypes="csscccccssccccccc" />
  </g>
</svg>
