<?xml version="1.0" encoding="UTF-8" standalone="no"?>
<!-- Created with Inkscape (http://www.inkscape.org/) -->

<svg
   width="500"
   height="1000"
   viewBox="0 0 132.29166 264.58333"
   version="1.1"
   id="svg5"
   inkscape:version="1.3 (0e150ed6c4, 2023-07-21)"
   sodipodi:docname="L.svg"
   xmlns:inkscape="http://www.inkscape.org/namespaces/inkscape"
   xmlns:sodipodi="http://sodipodi.sourceforge.net/DTD/sodipodi-0.dtd"
   xmlns="http://www.w3.org/2000/svg"
   xmlns:svg="http://www.w3.org/2000/svg">
  <sodipodi:namedview
     id="namedview7"
     pagecolor="#ffffff"
     bordercolor="#000000"
     borderopacity="0.25"
     inkscape:showpageshadow="2"
     inkscape:pageopacity="0.0"
     inkscape:pagecheckerboard="0"
     inkscape:deskcolor="#d1d1d1"
     inkscape:document-units="mm"
     showgrid="false"
     inkscape:zoom="0.7071068"
     inkscape:cx="-156.27059"
     inkscape:cy="277.18585"
     inkscape:window-width="1920"
     inkscape:window-height="995"
     inkscape:window-x="-9"
     inkscape:window-y="-9"
     inkscape:window-maximized="1"
     inkscape:current-layer="layer1"
     showguides="true">
    <sodipodi:guide
       position="0,238.12499"
       orientation="0,1"
       id="guide740"
       inkscape:locked="false"
       inkscape:label=""
       inkscape:color="rgb(0,134,229)" />
    <sodipodi:guide
       position="0,52.916657"
       orientation="0,1"
       id="guide956"
       inkscape:locked="false"
       inkscape:label=""
       inkscape:color="rgb(0,134,229)" />
    <sodipodi:guide
       position="13.229172,264.58333"
       orientation="1,0"
       id="guide958"
       inkscape:locked="false" />
    <sodipodi:guide
       position="251.35417,264.58333"
       orientation="1,0"
       id="guide960"
       inkscape:locked="false" />
    <sodipodi:guide
       position="119.0625,264.58333"
       orientation="-1,0"
       id="guide962"
       inkscape:locked="false"
       inkscape:label=""
       inkscape:color="rgb(0,134,229)" />
    <sodipodi:guide
       position="66.069915,195.58149"
       orientation="0,1"
       id="guide964"
       inkscape:locked="false"
       inkscape:label=""
       inkscape:color="rgb(0,134,229)" />
  </sodipodi:namedview>
  <defs
     id="defs2" />
  <g
     inkscape:label="Layer 1"
     inkscape:groupmode="layer"
     id="layer1">
    <path
       id="rect2"
       style="fill:#000000;stroke:none;stroke-width:0.371857"
       d="m 65.65891,68.568274 c -28.805255,0 -42.961876,14.50485 -49.689466,20.048351 l 7.251749,13.996565 C 29.545627,90.547 43.900776,82.461331 65.6584,82.454765 c 23.125538,-0.007 35.7673,8.866382 35.93787,22.902955 0.17965,14.78407 -3.198358,26.02103 -38.054027,28.344 l -16.938503,1.05834 v 11.24117 l 17.273883,1.05234 c 32.413156,0.38746 37.548667,13.7295 37.718647,28.38792 0.17058,14.70982 -1.00482,21.63438 -35.94201,21.63638 -34.93716,0.002 -54.185316,-21.23072 -54.185316,-21.23072 l 9.134836,20.41426 c 8.08633,6.2175 16.25996,16.27631 44.95798,16.27651 28.698026,2e-4 54.34036,-12.91432 54.20185,-37.09643 -0.11109,-19.3949 -11.36031,-31.19544 -32.616074,-35.04747 21.751354,-3.78871 32.616074,-15.44669 32.616074,-35.03662 0,-18.364038 -25.299445,-36.789126 -54.1047,-36.789126 z"
       sodipodi:nodetypes="zccssscccscccsscsz" />
  </g>
</svg>
