<?xml version="1.0" encoding="UTF-8" standalone="no"?>
<!-- Created with Inkscape (http://www.inkscape.org/) -->

<svg
   width="500"
   height="1000"
   viewBox="0 0 132.29166 264.58333"
   version="1.1"
   id="svg5"
   inkscape:version="1.3 (0e150ed6c4, 2023-07-21)"
   sodipodi:docname="M.svg"
   xmlns:inkscape="http://www.inkscape.org/namespaces/inkscape"
   xmlns:sodipodi="http://sodipodi.sourceforge.net/DTD/sodipodi-0.dtd"
   xmlns="http://www.w3.org/2000/svg"
   xmlns:svg="http://www.w3.org/2000/svg">
  <sodipodi:namedview
     id="namedview7"
     pagecolor="#ffffff"
     bordercolor="#000000"
     borderopacity="0.25"
     inkscape:showpageshadow="2"
     inkscape:pageopacity="0.0"
     inkscape:pagecheckerboard="0"
     inkscape:deskcolor="#d1d1d1"
     inkscape:document-units="mm"
     showgrid="false"
     inkscape:zoom="1"
     inkscape:cx="10.5"
     inkscape:cy="421"
     inkscape:window-width="1920"
     inkscape:window-height="995"
     inkscape:window-x="-9"
     inkscape:window-y="-9"
     inkscape:window-maximized="1"
     inkscape:current-layer="layer1"
     showguides="true">
    <sodipodi:guide
       position="0,247.18408"
       orientation="0,1"
       id="guide740"
       inkscape:locked="false"
       inkscape:label=""
       inkscape:color="rgb(0,134,229)" />
    <sodipodi:guide
       position="0,52.916657"
       orientation="0,1"
       id="guide956"
       inkscape:locked="false"
       inkscape:label=""
       inkscape:color="rgb(0,134,229)" />
    <sodipodi:guide
       position="13.229172,264.58333"
       orientation="1,0"
       id="guide958"
       inkscape:locked="false" />
    <sodipodi:guide
       position="251.35417,264.58333"
       orientation="1,0"
       id="guide960"
       inkscape:locked="false" />
    <sodipodi:guide
       position="119.0625,264.58333"
       orientation="-1,0"
       id="guide962"
       inkscape:locked="false"
       inkscape:label=""
       inkscape:color="rgb(0,134,229)" />
    <sodipodi:guide
       position="66.069915,195.58149"
       orientation="0,1"
       id="guide964"
       inkscape:locked="false"
       inkscape:label=""
       inkscape:color="rgb(0,134,229)" />
  </sodipodi:namedview>
  <defs
     id="defs2" />
  <g
     inkscape:label="Layer 1"
     inkscape:groupmode="layer"
     id="layer1">
    <path
       id="path1"
       style="fill:#000000;stroke-width:0.4"
       d="m 23.622843,52.9203 c 14.936246,-19.57705 31.07286,-20.950098 42.787574,-21.078858 8.215848,-0.0903 34.261993,0.525205 34.261993,13.465371 0,11.394571 -22.275945,15.943783 -34.262013,19.46902 -31.687474,1.4e-4 -60.0210473,36.375267 -60.0211273,75.695177 -1.5e-4,39.32012 28.3334933,74.37051 60.0211373,74.37065 31.68765,-1.4e-4 59.492133,-35.05053 59.491983,-74.37065 C 125.86309,105.71917 110.92627,74.467433 83.303451,68.737253 105.25138,65.54455 114.38472,55.417758 114.36096,42.660982 114.33474,28.583727 93.736405,17.399246 66.410397,17.399246 c -19.119257,0 -44.068968,12.298127 -51.906788,24.404901 z m 42.787554,28.137389 c 26.04229,-6e-5 39.745423,21.632001 39.745393,59.413401 4e-5,37.78142 -13.703103,57.826 -39.745393,57.82594 -26.042284,6e-5 -40.274574,-20.04452 -40.274534,-57.82594 -3e-5,-37.78141 14.23225,-59.413461 40.274534,-59.413401 z"
       sodipodi:nodetypes="csscccccssccccccc" />
  </g>
</svg>
